<svg xmlns="http://www.w3.org/2000/svg" viewBox="0 0 64 64" role="img" aria-label="Phone">
  <defs>
    <linearGradient id="phone-bg" x1="0" y1="0" x2="1" y2="1">
      <stop offset="0%" stop-color="#22c55e"/>
      <stop offset="100%" stop-color="#15803d"/>
    </linearGradient>
  </defs>
  <circle cx="32" cy="32" r="32" fill="url(#phone-bg)"/>
  <path d="M22 19c0-1.1.9-2 2-2h6c1 0 1.8.7 2 1.7l1.4 7c.2 1-.2 2-1 2.6l-3.6 2.7c2.2 4.6 5.9 8.4 10.5 10.6l2.7-3.6c.6-.8 1.7-1.2 2.6-1l7 1.4c1 .2 1.7 1 1.7 2v6c0 1.1-.9 2-2 2C28.6 49 15 35.4 15 19z"
        fill="#ffffff"/>
</svg>
